Rubik-BoldItalic.ufo
<glyph name="numbersign" format="2">
  <advance width="677"/>
  <unicode hex="0023"/>
  <guideline x="698"/>
  <outline>
    <contour>
      <point x="83" y="39" type="curve"/>
      <point x="199" y="39" type="line"/>
      <point x="212" y="39"/>
      <point x="223" y="48"/>
      <point x="228" y="60" type="curve"/>
      <point x="255" y="136" type="line"/>
      <point x="319" y="136" type="line"/>
      <point x="292" y="61" type="line"/>
      <point x="290" y="49"/>
      <point x="298" y="39"/>
      <point x="310" y="39" type="curve"/>
      <point x="426" y="39" type="line"/>
      <point x="439" y="39"/>
      <point x="450" y="48"/>
      <point x="455" y="60" type="curve"/>
      <point x="482" y="136" type="line"/>
      <point x="566" y="136" type="line"/>
      <point x="580" y="136"/>
      <point x="593" y="147"/>
      <point x="596" y="161" type="curve"/>
      <point x="622" y="279" type="line"/>
      <point x="624" y="293"/>
      <point x="616" y="304"/>
      <point x="602" y="304" type="curve"/>
      <point x="543" y="304" type="line"/>
      <point x="574" y="390" type="line"/>
      <point x="646" y="390" type="line"/>
      <point x="660" y="390"/>
      <point x="673" y="401"/>
      <point x="676" y="415" type="curve"/>
      <point x="702" y="533" type="line"/>
      <point x="704" y="547"/>
      <point x="696" y="558"/>
      <point x="682" y="558" type="curve"/>
      <point x="635" y="558" type="line"/>
      <point x="662" y="633" type="line"/>
      <point x="664" y="645"/>
      <point x="656" y="655"/>
      <point x="644" y="655" type="curve"/>
      <point x="528" y="655" type="line"/>
      <point x="515" y="655"/>
      <point x="504" y="645"/>
      <point x="500" y="634" type="curve"/>
      <point x="472" y="558" type="line"/>
      <point x="408" y="558" type="line"/>
      <point x="435" y="633" type="line"/>
      <point x="437" y="645"/>
      <point x="429" y="655"/>
      <point x="417" y="655" type="curve"/>
      <point x="301" y="655" type="line"/>
      <point x="288" y="655"/>
      <point x="277" y="645"/>
      <point x="273" y="634" type="curve"/>
      <point x="245" y="558" type="line"/>
      <point x="161" y="558" type="line"/>
      <point x="147" y="558"/>
      <point x="133" y="547"/>
      <point x="131" y="533" type="curve"/>
      <point x="105" y="415" type="line"/>
      <point x="102" y="401"/>
      <point x="111" y="390"/>
      <point x="125" y="390" type="curve"/>
      <point x="184" y="390" type="line"/>
      <point x="153" y="304" type="line"/>
      <point x="81" y="304" type="line"/>
      <point x="67" y="304"/>
      <point x="53" y="293"/>
      <point x="51" y="279" type="curve"/>
      <point x="25" y="161" type="line"/>
      <point x="22" y="147"/>
      <point x="31" y="136"/>
      <point x="45" y="136" type="curve"/>
      <point x="92" y="136" type="line"/>
      <point x="65" y="61" type="line" smooth="yes"/>
      <point x="61" y="49"/>
      <point x="71" y="39"/>
    </contour>
    <contour>
      <point x="316" y="304" type="line"/>
      <point x="347" y="390" type="line"/>
      <point x="411" y="390" type="line"/>
      <point x="380" y="304" type="line"/>
    </contour>
  </outline>
</glyph>
<glyph name="hyphen" format="2">
  <advance width="469"/>
  <unicode hex="002D"/>
  <outline>
    <contour>
      <point x="51" y="202" type="curve" smooth="yes"/>
      <point x="376" y="202" type="line" smooth="yes"/>
      <point x="391" y="202"/>
      <point x="406" y="214"/>
      <point x="409" y="229" type="curve" smooth="yes"/>
      <point x="439" y="371" type="line" smooth="yes"/>
      <point x="443" y="386"/>
      <point x="433" y="398"/>
      <point x="418" y="398" type="curve" smooth="yes"/>
      <point x="93" y="398" type="line" smooth="yes"/>
      <point x="78" y="398"/>
      <point x="64" y="386"/>
      <point x="60" y="371" type="curve" smooth="yes"/>
      <point x="30" y="229" type="line" smooth="yes"/>
      <point x="27" y="214"/>
      <point x="36" y="202"/>
    </contour>
  </outline>
</glyph>
<glyph name="equal" format="2">
  <advance width="564"/>
  <unicode hex="003D"/>
  <outline>
    <contour>
      <point x="36" y="90" type="curve" smooth="yes"/>
      <point x="441" y="90" type="line" smooth="yes"/>
      <point x="456" y="90"/>
      <point x="470" y="102"/>
      <point x="473" y="117" type="curve" smooth="yes"/>
      <point x="498" y="233" type="line" smooth="yes"/>
      <point x="501" y="248"/>
      <point x="492" y="260"/>
      <point x="477" y="260" type="curve" smooth="yes"/>
      <point x="72" y="260" type="line" smooth="yes"/>
      <point x="57" y="260"/>
      <point x="42" y="248"/>
      <point x="39" y="233" type="curve" smooth="yes"/>
      <point x="14" y="117" type="line" smooth="yes"/>
      <point x="11" y="102"/>
      <point x="21" y="90"/>
    </contour>
    <contour>
      <point x="89" y="340" type="curve" smooth="yes"/>
      <point x="494" y="340" type="line" smooth="yes"/>
      <point x="509" y="340"/>
      <point x="523" y="352"/>
      <point x="527" y="367" type="curve" smooth="yes"/>
      <point x="551" y="483" type="line" smooth="yes"/>
      <point x="554" y="498"/>
      <point x="545" y="510"/>
      <point x="530" y="510" type="curve" smooth="yes"/>
      <point x="125" y="510" type="line" smooth="yes"/>
      <point x="110" y="510"/>
      <point x="95" y="498"/>
      <point x="92" y="483" type="curve" smooth="yes"/>
      <point x="68" y="367" type="line" smooth="yes"/>
      <point x="64" y="352"/>
      <point x="74" y="340"/>
    </contour>
  </outline>
</glyph>
<glyph name="I" format="2">
  <advance width="367"/>
  <unicode hex="0049"/>
  <anchor x="118" y="0" name="bottom"/>
  <anchor x="225" y="10" name="ogonek"/>
  <anchor x="268" y="700" name="top"/>
  <anchor x="114" y="700" name="topleft"/>
  <outline>
    <contour>
      <point x="19" y="0" type="curve" smooth="yes"/>
      <point x="223" y="0" type="line" smooth="yes"/>
      <point x="238" y="0"/>
      <point x="252" y="12"/>
      <point x="255" y="27" type="curve" smooth="yes"/>
      <point x="393" y="673" type="line" smooth="yes"/>
      <point x="396" y="688"/>
      <point x="386" y="700"/>
      <point x="371" y="700" type="curve" smooth="yes"/>
      <point x="167" y="700" type="line" smooth="yes"/>
      <point x="152" y="700"/>
      <point x="138" y="688"/>
      <point x="135" y="673" type="curve" smooth="yes"/>
      <point x="-3" y="27" type="line" smooth="yes"/>
      <point x="-6" y="12"/>
      <point x="4" y="0"/>
    </contour>
  </outline>
</glyph>
<glyph name="w" format="2">
  <advance width="872"/>
  <unicode hex="0077"/>
  <outline>
    <contour>
      <point x="132" y="0" type="curve" smooth="yes"/>
      <point x="261" y="0" type="line" smooth="yes"/>
      <point x="281" y="0"/>
      <point x="292" y="13"/>
      <point x="299" y="25" type="curve" smooth="yes"/>
      <point x="414" y="227" type="line"/>
      <point x="452" y="25" type="line" smooth="yes"/>
      <point x="453" y="13"/>
      <point x="460" y="0"/>
      <point x="480" y="0" type="curve" smooth="yes"/>
      <point x="614" y="0" type="line" smooth="yes"/>
      <point x="634" y="0"/>
      <point x="645" y="13"/>
      <point x="652" y="25" type="curve" smooth="yes"/>
      <point x="896" y="488" type="line"/>
      <point x="903" y="502"/>
      <point x="898" y="520"/>
      <point x="880" y="520" type="curve" smooth="yes"/>
      <point x="716" y="520" type="line" smooth="yes"/>
      <point x="696" y="520"/>
      <point x="682" y="507"/>
      <point x="677" y="496" type="curve" smooth="yes"/>
      <point x="572" y="288" type="line"/>
      <point x="551" y="496" type="line" smooth="yes"/>
      <point x="550" y="507"/>
      <point x="542" y="520"/>
      <point x="522" y="520" type="curve" smooth="yes"/>
      <point x="429" y="520" type="line" smooth="yes"/>
      <point x="409" y="520"/>
      <point x="395" y="507"/>
      <point x="390" y="496" type="curve" smooth="yes"/>
      <point x="281" y="288" type="line"/>
      <point x="264" y="496" type="line" smooth="yes"/>
      <point x="263" y="507"/>
      <point x="255" y="520"/>
      <point x="235" y="520" type="curve" smooth="yes"/>
      <point x="86" y="520" type="line" smooth="yes"/>
      <point x="70" y="520"/>
      <point x="54" y="504"/>
      <point x="56" y="488" type="curve" smooth="yes"/>
      <point x="104" y="25" type="line" smooth="yes"/>
      <point x="105" y="13"/>
      <point x="112" y="0"/>
    </contour>
  </outline>
</glyph>
<glyph name="braceleft" format="2">
  <advance width="474"/>
  <unicode hex="007B"/>
  <outline>
    <contour>
      <point x="342" y="-158" type="curve"/>
      <point x="347" y="-158" type="line"/>
      <point x="359" y="-158"/>
      <point x="371" y="-148"/>
      <point x="373" y="-136" type="curve" smooth="yes"/>
      <point x="402" y="1" type="line" smooth="yes"/>
      <point x="405" y="13"/>
      <point x="397" y="22"/>
      <point x="388" y="23" type="curve"/>
      <point x="383" y="24" type="line"/>
      <point x="315" y="33"/>
      <point x="269" y="63"/>
      <point x="285" y="142" type="curve" smooth="yes"/>
      <point x="302" y="222"/>
      <point x="282" y="296"/>
      <point x="248" y="309" type="curve"/>
      <point x="288" y="322"/>
      <point x="338" y="388"/>
      <point x="356" y="476" type="curve" smooth="yes"/>
      <point x="373" y="556"/>
      <point x="433" y="585"/>
      <point x="507" y="595" type="curve"/>
      <point x="510" y="595" type="line"/>
      <point x="519" y="596"/>
      <point x="531" y="605"/>
      <point x="533" y="617" type="curve" smooth="yes"/>
      <point x="562" y="754" type="line" smooth="yes"/>
      <point x="565" y="766"/>
      <point x="557" y="776"/>
      <point x="545" y="776" type="curve"/>
      <point x="538" y="776" type="line"/>
      <point x="383" y="773"/>
      <point x="191" y="687"/>
      <point x="149" y="487" type="curve" smooth="yes"/>
      <point x="140" y="444"/>
      <point x="115" y="400"/>
      <point x="73" y="384" type="curve" smooth="yes"/>
      <point x="54" y="377" type="line" smooth="yes"/>
      <point x="32" y="368"/>
      <point x="21" y="356"/>
      <point x="16" y="335" type="curve" smooth="yes"/>
      <point x="5" y="283" type="line" smooth="yes"/>
      <point x="1" y="262"/>
      <point x="7" y="250"/>
      <point x="25" y="241" type="curve" smooth="yes"/>
      <point x="41" y="234" type="line" smooth="yes"/>
      <point x="77" y="218"/>
      <point x="82" y="174"/>
      <point x="73" y="131" type="curve" smooth="yes"/>
      <point x="30" y="-70"/>
      <point x="186" y="-156"/>
    </contour>
  </outline>
</glyph>
<glyph name="currency" format="2">
  <advance width="634"/>
  <unicode hex="00A4"/>
  <outline>
    <contour>
      <point x="78" y="29" type="line" smooth="yes"/>
      <point x="87" y="19"/>
      <point x="104" y="19"/>
      <point x="116" y="29" type="curve" smooth="yes"/>
      <point x="173" y="76" type="line"/>
      <point x="203" y="59"/>
      <point x="239" y="50"/>
      <point x="279" y="50" type="curve" smooth="yes"/>
      <point x="319" y="50"/>
      <point x="358" y="59"/>
      <point x="395" y="76" type="curve"/>
      <point x="432" y="29" type="line" smooth="yes"/>
      <point x="440" y="19"/>
      <point x="457" y="19"/>
      <point x="470" y="29" type="curve" smooth="yes"/>
      <point x="561" y="104" type="line" smooth="yes"/>
      <point x="574" y="115"/>
      <point x="577" y="132"/>
      <point x="569" y="142" type="curve" smooth="yes"/>
      <point x="532" y="189" type="line"/>
      <point x="555" y="222"/>
      <point x="573" y="260"/>
      <point x="582" y="300" type="curve" smooth="yes"/>
      <point x="590" y="340"/>
      <point x="588" y="377"/>
      <point x="580" y="411" type="curve"/>
      <point x="637" y="458" type="line" smooth="yes"/>
      <point x="649" y="468"/>
      <point x="652" y="485"/>
      <point x="645" y="496" type="curve" smooth="yes"/>
      <point x="586" y="571" type="line" smooth="yes"/>
      <point x="577" y="581"/>
      <point x="560" y="581"/>
      <point x="548" y="571" type="curve" smooth="yes"/>
      <point x="491" y="524" type="line"/>
      <point x="460" y="540"/>
      <point x="425" y="550"/>
      <point x="385" y="550" type="curve" smooth="yes"/>
      <point x="345" y="550"/>
      <point x="305" y="540"/>
      <point x="269" y="524" type="curve"/>
      <point x="232" y="571" type="line" smooth="yes"/>
      <point x="224" y="581"/>
      <point x="207" y="581"/>
      <point x="194" y="571" type="curve" smooth="yes"/>
      <point x="103" y="496" type="line" smooth="yes"/>
      <point x="90" y="485"/>
      <point x="87" y="468"/>
      <point x="95" y="458" type="curve" smooth="yes"/>
      <point x="132" y="411" type="line"/>
      <point x="107" y="377"/>
      <point x="90" y="340"/>
      <point x="82" y="300" type="curve" smooth="yes"/>
      <point x="73" y="260"/>
      <point x="74" y="222"/>
      <point x="84" y="189" type="curve"/>
      <point x="27" y="142" type="line" smooth="yes"/>
      <point x="15" y="132"/>
      <point x="12" y="115"/>
      <point x="19" y="104" type="curve" smooth="yes"/>
    </contour>
    <contour>
      <point x="313" y="210" type="curve" smooth="yes"/>
      <point x="263" y="210"/>
      <point x="231" y="250"/>
      <point x="242" y="300" type="curve" smooth="yes"/>
      <point x="253" y="350"/>
      <point x="301" y="390"/>
      <point x="351" y="390" type="curve" smooth="yes"/>
      <point x="401" y="390"/>
      <point x="433" y="350"/>
      <point x="422" y="300" type="curve" smooth="yes"/>
      <point x="411" y="250"/>
      <point x="363" y="210"/>
    </contour>
  </outline>
</glyph>
<glyph name="eth" format="2">
  <advance width="638"/>
  <unicode hex="00F0"/>
  <outline>
    <contour>
      <point x="265" y="-10" type="curve" smooth="yes"/>
      <point x="438" y="-10"/>
      <point x="563" y="68"/>
      <point x="605" y="225" type="curve" smooth="yes"/>
      <point x="610" y="245"/>
      <point x="615" y="268"/>
      <point x="618" y="288" type="curve" smooth="yes"/>
      <point x="640" y="424"/>
      <point x="623" y="524"/>
      <point x="577" y="601" type="curve"/>
      <point x="621" y="617" type="line"/>
      <point x="639" y="623"/>
      <point x="647" y="632"/>
      <point x="650" y="650" type="curve"/>
      <point x="656" y="678" type="line"/>
      <point x="659" y="690"/>
      <point x="652" y="699"/>
      <point x="640" y="699" type="curve" smooth="yes"/>
      <point x="638" y="699"/>
      <point x="634" y="698"/>
      <point x="628" y="696" type="curve"/>
      <point x="531" y="661" type="line"/>
      <point x="523" y="670"/>
      <point x="512" y="678"/>
      <point x="503" y="687" type="curve" smooth="yes"/>
      <point x="495" y="694"/>
      <point x="480" y="700"/>
      <point x="453" y="700" type="curve"/>
      <point x="265" y="700" type="line"/>
      <point x="253" y="700"/>
      <point x="241" y="690"/>
      <point x="238" y="678" type="curve" smooth="yes"/>
      <point x="237" y="673"/>
      <point x="240" y="665"/>
      <point x="247" y="659" type="curve" smooth="yes"/>
      <point x="275" y="637"/>
      <point x="301" y="613"/>
      <point x="322" y="586" type="curve"/>
      <point x="242" y="557" type="line"/>
      <point x="224" y="551"/>
      <point x="216" y="542"/>
      <point x="213" y="524" type="curve"/>
      <point x="207" y="496" type="line"/>
      <point x="204" y="484"/>
      <point x="211" y="475"/>
      <point x="223" y="475" type="curve" smooth="yes"/>
      <point x="225" y="475"/>
      <point x="229" y="476"/>
      <point x="235" y="478" type="curve"/>
      <point x="363" y="524" type="line"/>
      <point x="371" y="506"/>
      <point x="377" y="488"/>
      <point x="381" y="470" type="curve"/>
      <point x="376" y="470"/>
      <point x="372" y="470"/>
      <point x="367" y="470" type="curve"/>
      <point x="204" y="470"/>
      <point x="61" y="392"/>
      <point x="26" y="230" type="curve" smooth="yes"/>
      <point x="-8" y="68"/>
      <point x="91" y="-10"/>
    </contour>
    <contour>
      <point x="299" y="150" type="curve" smooth="yes"/>
      <point x="262" y="150"/>
      <point x="260" y="171"/>
      <point x="266" y="204" type="curve" smooth="yes"/>
      <point x="269" y="224"/>
      <point x="271" y="236"/>
      <point x="277" y="256" type="curve" smooth="yes"/>
      <point x="285" y="288"/>
      <point x="296" y="310"/>
      <point x="333" y="310" type="curve" smooth="yes"/>
      <point x="370" y="310"/>
      <point x="371" y="288"/>
      <point x="367" y="256" type="curve" smooth="yes"/>
      <point x="363" y="236"/>
      <point x="361" y="223"/>
      <point x="355" y="203" type="curve" smooth="yes"/>
      <point x="348" y="171"/>
      <point x="333" y="150"/>
    </contour>
  </outline>
</glyph>
<glyph name="eogonek" format="2">
  <advance width="623"/>
  <unicode hex="0119"/>
  <outline>
    <contour>
      <point x="272" y="-220" type="curve" smooth="yes"/>
      <point x="286" y="-220" type="line"/>
      <point x="301" y="-220"/>
      <point x="316" y="-208"/>
      <point x="319" y="-193" type="curve"/>
      <point x="334" y="-125" type="line"/>
      <point x="337" y="-110"/>
      <point x="327" y="-98"/>
      <point x="312" y="-98" type="curve"/>
      <point x="302" y="-98" type="line"/>
      <point x="263" y="-98"/>
      <point x="258" y="-70"/>
      <point x="263" y="-49" type="curve" smooth="yes"/>
      <point x="267" y="-28"/>
      <point x="287" y="-12"/>
      <point x="330" y="-5" type="curve"/>
      <point x="473" y="15"/>
      <point x="554" y="100"/>
      <point x="567" y="145" type="curve" smooth="yes"/>
      <point x="571" y="158"/>
      <point x="563" y="167"/>
      <point x="550" y="167" type="curve"/>
      <point x="361" y="167" type="line"/>
      <point x="345" y="167"/>
      <point x="339" y="165"/>
      <point x="325" y="153" type="curve" smooth="yes"/>
      <point x="311" y="142"/>
      <point x="304" y="135"/>
      <point x="292" y="135" type="curve" smooth="yes"/>
      <point x="263" y="135"/>
      <point x="257" y="156"/>
      <point x="266" y="196" type="curve"/>
      <point x="267" y="201" type="line"/>
      <point x="565" y="201" type="line"/>
      <point x="580" y="201"/>
      <point x="594" y="213"/>
      <point x="598" y="228" type="curve"/>
      <point x="604" y="258" type="line"/>
      <point x="635" y="405"/>
      <point x="573" y="530"/>
      <point x="377" y="530" type="curve" smooth="yes"/>
      <point x="206" y="530"/>
      <point x="74" y="437"/>
      <point x="35" y="264" type="curve" smooth="yes"/>
      <point x="35" y="262"/>
      <point x="35" y="261"/>
      <point x="34" y="259" type="curve" smooth="yes"/>
      <point x="4" y="116"/>
      <point x="51" y="34"/>
      <point x="154" y="3" type="curve"/>
      <point x="146" y="-13"/>
      <point x="141" y="-30"/>
      <point x="137" y="-49" type="curve" smooth="yes"/>
      <point x="117" y="-144"/>
      <point x="151" y="-220"/>
    </contour>
    <contour>
      <point x="294" y="326" type="line"/>
      <point x="294" y="327" type="line"/>
      <point x="303" y="371"/>
      <point x="321" y="390"/>
      <point x="347" y="390" type="curve" smooth="yes"/>
      <point x="373" y="390"/>
      <point x="383" y="371"/>
      <point x="374" y="327" type="curve"/>
      <point x="374" y="326" type="line"/>
    </contour>
  </outline>
</glyph>
<glyph name="idotless" format="2">
  <advance width="323"/>
  <unicode hex="0131"/>
  <anchor x="107" y="0" name="bottom"/>
  <anchor x="187" y="10" name="ogonek"/>
  <anchor x="209" y="520" name="top"/>
  <outline>
    <contour>
      <point x="10" y="0" type="curve" smooth="yes"/>
      <point x="189" y="0" type="line"/>
      <point x="204" y="0"/>
      <point x="218" y="12"/>
      <point x="221" y="27" type="curve" smooth="yes"/>
      <point x="320" y="493" type="line" smooth="yes"/>
      <point x="323" y="508"/>
      <point x="314" y="520"/>
      <point x="299" y="520" type="curve" smooth="yes"/>
      <point x="120" y="520" type="line" smooth="yes"/>
      <point x="105" y="520"/>
      <point x="90" y="508"/>
      <point x="87" y="493" type="curve" smooth="yes"/>
      <point x="-12" y="27" type="line" smooth="yes"/>
      <point x="-15" y="12"/>
      <point x="-5" y="0"/>
    </contour>
  </outline>
</glyph>
<glyph name="lslash" format="2">
  <advance width="400"/>
  <unicode hex="0142"/>
  <guideline x="350" y="215" angle="0"/>
  <guideline x="350" y="355" angle="0"/>
  <guideline x="360"/>
  <guideline x="713"/>
  <outline>
    <contour>
      <point x="62" y="0" type="curve" smooth="yes"/>
      <point x="241" y="0" type="line" smooth="yes"/>
      <point x="256" y="0"/>
      <point x="271" y="12"/>
      <point x="274" y="27" type="curve" smooth="yes"/>
      <point x="336" y="319" type="line"/>
      <point x="377" y="334" type="line" smooth="yes"/>
      <point x="394" y="340"/>
      <point x="402" y="349"/>
      <point x="406" y="367" type="curve" smooth="yes"/>
      <point x="429" y="475" type="line" smooth="yes"/>
      <point x="432" y="487"/>
      <point x="425" y="496"/>
      <point x="413" y="496" type="curve" smooth="yes"/>
      <point x="411" y="496"/>
      <point x="406" y="495"/>
      <point x="401" y="493" type="curve" smooth="yes"/>
      <point x="371" y="482" type="line"/>
      <point x="413" y="683" type="line" smooth="yes"/>
      <point x="417" y="698"/>
      <point x="407" y="710"/>
      <point x="392" y="710" type="curve" smooth="yes"/>
      <point x="213" y="710" type="line" smooth="yes"/>
      <point x="198" y="710"/>
      <point x="184" y="698"/>
      <point x="180" y="683" type="curve" smooth="yes"/>
      <point x="118" y="391" type="line"/>
      <point x="77" y="377" type="line" smooth="yes"/>
      <point x="60" y="371"/>
      <point x="52" y="362"/>
      <point x="48" y="344" type="curve" smooth="yes"/>
      <point x="25" y="236" type="line" smooth="yes"/>
      <point x="23" y="224"/>
      <point x="30" y="215"/>
      <point x="42" y="215" type="curve" smooth="yes"/>
      <point x="44" y="215"/>
      <point x="48" y="216"/>
      <point x="54" y="218" type="curve" smooth="yes"/>
      <point x="84" y="229" type="line"/>
      <point x="41" y="27" type="line" smooth="yes"/>
      <point x="38" y="12"/>
      <point x="47" y="0"/>
    </contour>
  </outline>
</glyph>
<glyph name="scedilla" format="2">
  <advance width="590"/>
  <unicode hex="015F"/>
  <outline>
    <contour>
      <point x="193" y="-220" type="curve" smooth="yes"/>
      <point x="253" y="-220"/>
      <point x="300" y="-183"/>
      <point x="312" y="-130" type="curve" smooth="yes"/>
      <point x="323" y="-77"/>
      <point x="301" y="-40"/>
      <point x="250" y="-40" type="curve" smooth="yes"/>
      <point x="246" y="-40"/>
      <point x="227" y="-42"/>
      <point x="219" y="-45" type="curve"/>
      <point x="244" y="-10" type="line"/>
      <point x="421" y="-8"/>
      <point x="532" y="56"/>
      <point x="555" y="162" type="curve" smooth="yes"/>
      <point x="569" y="230"/>
      <point x="535" y="309"/>
      <point x="395" y="330" type="curve" smooth="yes"/>
      <point x="295" y="345"/>
      <point x="291" y="357"/>
      <point x="295" y="374" type="curve" smooth="yes"/>
      <point x="297" y="383"/>
      <point x="308" y="390"/>
      <point x="318" y="390" type="curve" smooth="yes"/>
      <point x="347" y="390"/>
      <point x="356" y="360"/>
      <point x="385" y="360" type="curve"/>
      <point x="388" y="360"/>
      <point x="390" y="360"/>
      <point x="393" y="360" type="curve"/>
      <point x="553" y="360" type="line"/>
      <point x="565" y="360"/>
      <point x="578" y="372"/>
      <point x="580" y="387" type="curve" smooth="yes"/>
      <point x="590" y="444"/>
      <point x="514" y="530"/>
      <point x="349" y="530" type="curve" smooth="yes"/>
      <point x="184" y="530"/>
      <point x="78" y="445"/>
      <point x="60" y="359" type="curve" smooth="yes"/>
      <point x="37" y="254"/>
      <point x="118" y="209"/>
      <point x="207" y="192" type="curve" smooth="yes"/>
      <point x="302" y="174"/>
      <point x="305" y="162"/>
      <point x="301" y="145" type="curve" smooth="yes"/>
      <point x="299" y="135"/>
      <point x="286" y="130"/>
      <point x="275" y="130" type="curve" smooth="yes"/>
      <point x="242" y="130"/>
      <point x="234" y="160"/>
      <point x="205" y="160" type="curve"/>
      <point x="202" y="160"/>
      <point x="200" y="160"/>
      <point x="197" y="160" type="curve"/>
      <point x="31" y="160" type="line"/>
      <point x="17" y="160"/>
      <point x="4" y="148"/>
      <point x="1" y="133" type="curve" smooth="yes"/>
      <point x="-7" y="85"/>
      <point x="35" y="9"/>
      <point x="182" y="-7" type="curve"/>
      <point x="152" y="-52" type="line"/>
      <point x="139" y="-71"/>
      <point x="140" y="-76"/>
      <point x="147" y="-85" type="curve"/>
      <point x="164" y="-106" type="line"/>
      <point x="174" y="-119"/>
      <point x="200" y="-106"/>
      <point x="218" y="-106" type="curve" smooth="yes"/>
      <point x="238" y="-106"/>
      <point x="243" y="-118"/>
      <point x="241" y="-130" type="curve" smooth="yes"/>
      <point x="238" y="-142"/>
      <point x="226" y="-154"/>
      <point x="207" y="-154" type="curve" smooth="yes"/>
      <point x="173" y="-154"/>
      <point x="172" y="-136"/>
      <point x="152" y="-151" type="curve"/>
      <point x="127" y="-169" type="line"/>
      <point x="100" y="-189"/>
      <point x="140" y="-220"/>
    </contour>
  </outline>
</glyph>
<glyph name="dotaccent" format="2">
  <advance width="237"/>
  <unicode hex="02D9"/>
  <outline>
    <contour>
      <point x="49" y="595" type="curve" smooth="yes"/>
      <point x="180" y="595" type="line" smooth="yes"/>
      <point x="193" y="595"/>
      <point x="205" y="605"/>
      <point x="208" y="618" type="curve" smooth="yes"/>
      <point x="236" y="749" type="line" smooth="yes"/>
      <point x="238" y="762"/>
      <point x="231" y="772"/>
      <point x="218" y="772" type="curve" smooth="yes"/>
      <point x="87" y="772" type="line" smooth="yes"/>
      <point x="74" y="772"/>
      <point x="61" y="762"/>
      <point x="59" y="749" type="curve" smooth="yes"/>
      <point x="31" y="618" type="line" smooth="yes"/>
      <point x="28" y="605"/>
      <point x="36" y="595"/>
    </contour>
  </outline>
</glyph>
<glyph name="strokeshortcomb" format="2">
  <unicode hex="0335"/>
  <anchor x="225" y="292" name="_center"/>
  <outline>
    <contour>
      <point x="64" y="231" type="curve" smooth="yes"/>
      <point x="399" y="231" type="line" smooth="yes"/>
      <point x="414" y="231"/>
      <point x="429" y="243"/>
      <point x="432" y="258" type="curve" smooth="yes"/>
      <point x="446" y="326" type="line" smooth="yes"/>
      <point x="449" y="341"/>
      <point x="440" y="353"/>
      <point x="425" y="353" type="curve" smooth="yes"/>
      <point x="90" y="353" type="line" smooth="yes"/>
      <point x="75" y="353"/>
      <point x="60" y="341"/>
      <point x="57" y="326" type="curve" smooth="yes"/>
      <point x="43" y="258" type="line" smooth="yes"/>
      <point x="40" y="243"/>
      <point x="49" y="231"/>
    </contour>
  </outline>
</glyph>
<glyph name="Dje-cy" format="2">
  <advance width="828"/>
  <unicode hex="0402"/>
  <guideline x="405"/>
  <outline>
    <contour>
      <point x="120" y="0" type="curve" smooth="yes"/>
      <point x="316" y="0" type="line" smooth="yes"/>
      <point x="331" y="0"/>
      <point x="345" y="12"/>
      <point x="348" y="27" type="curve" smooth="yes"/>
      <point x="391" y="228" type="line"/>
      <point x="394" y="244"/>
      <point x="414" y="259"/>
      <point x="466" y="259" type="curve" smooth="yes"/>
      <point x="513" y="259"/>
      <point x="530" y="248"/>
      <point x="525" y="222" type="curve" smooth="yes"/>
      <point x="524" y="219" type="line" smooth="yes"/>
      <point x="519" y="195"/>
      <point x="502" y="180"/>
      <point x="459" y="180" type="curve" smooth="yes"/>
      <point x="439" y="180" type="line" smooth="yes"/>
      <point x="424" y="180"/>
      <point x="409" y="168"/>
      <point x="406" y="153" type="curve" smooth="yes"/>
      <point x="379" y="27" type="line" smooth="yes"/>
      <point x="376" y="12"/>
      <point x="386" y="0"/>
      <point x="401" y="0" type="curve" smooth="yes"/>
      <point x="421" y="0" type="line" smooth="yes"/>
      <point x="610" y="0"/>
      <point x="741" y="63"/>
      <point x="774" y="218" type="curve" smooth="yes"/>
      <point x="779" y="243" type="line" smooth="yes"/>
      <point x="814" y="407"/>
      <point x="752" y="487"/>
      <point x="578" y="487" type="curve" smooth="yes"/>
      <point x="527" y="487"/>
      <point x="472" y="472"/>
      <point x="440" y="457" type="curve"/>
      <point x="454" y="523" type="line"/>
      <point x="661" y="523" type="line" smooth="yes"/>
      <point x="674" y="523"/>
      <point x="686" y="533"/>
      <point x="689" y="546" type="curve" smooth="yes"/>
      <point x="717" y="677" type="line" smooth="yes"/>
      <point x="719" y="690"/>
      <point x="711" y="700"/>
      <point x="698" y="700" type="curve" smooth="yes"/>
      <point x="124" y="700" type="line" smooth="yes"/>
      <point x="111" y="700"/>
      <point x="99" y="690"/>
      <point x="97" y="677" type="curve" smooth="yes"/>
      <point x="69" y="546" type="line" smooth="yes"/>
      <point x="66" y="533"/>
      <point x="74" y="523"/>
      <point x="87" y="523" type="curve" smooth="yes"/>
      <point x="204" y="523" type="line"/>
      <point x="98" y="27" type="line" smooth="yes"/>
      <point x="95" y="12"/>
      <point x="105" y="0"/>
    </contour>
  </outline>
</glyph>
<glyph name="Be-cy" format="2">
  <advance width="672"/>
  <unicode hex="0411"/>
  <outline>
    <contour>
      <point x="8" y="0" type="curve" smooth="yes"/>
      <point x="321" y="0" type="line" smooth="yes"/>
      <point x="501" y="0"/>
      <point x="625" y="85"/>
      <point x="655" y="226" type="curve" smooth="yes"/>
      <point x="684" y="365"/>
      <point x="591" y="447"/>
      <point x="416" y="447" type="curve" smooth="yes"/>
      <point x="326" y="447" type="line"/>
      <point x="336" y="495" type="line"/>
      <point x="631" y="495" type="line" smooth="yes"/>
      <point x="646" y="495"/>
      <point x="660" y="507"/>
      <point x="664" y="522" type="curve" smooth="yes"/>
      <point x="696" y="673" type="line" smooth="yes"/>
      <point x="699" y="688"/>
      <point x="689" y="700"/>
      <point x="674" y="700" type="curve" smooth="yes"/>
      <point x="156" y="700" type="line" smooth="yes"/>
      <point x="141" y="700"/>
      <point x="127" y="688"/>
      <point x="124" y="673" type="curve" smooth="yes"/>
      <point x="-14" y="27" type="line" smooth="yes"/>
      <point x="-17" y="12"/>
      <point x="-7" y="0"/>
    </contour>
    <contour>
      <point x="267" y="172" type="line"/>
      <point x="290" y="280" type="line"/>
      <point x="360" y="280" type="line" smooth="yes"/>
      <point x="388" y="280"/>
      <point x="400" y="253"/>
      <point x="395" y="226" type="curve" smooth="yes"/>
      <point x="389" y="199"/>
      <point x="368" y="172"/>
      <point x="337" y="172" type="curve" smooth="yes"/>
    </contour>
  </outline>
</glyph>
<glyph name="De-cy" format="2">
  <advance width="845"/>
  <unicode hex="0414"/>
  <guideline x="-63" y="-110" angle="0"/>
  <outline>
    <contour>
      <point x="-27" y="-140" type="curve" smooth="yes"/>
      <point x="169" y="-140" type="line" smooth="yes"/>
      <point x="184" y="-140"/>
      <point x="198" y="-128"/>
      <point x="201" y="-113" type="curve" smooth="yes"/>
      <point x="225" y="0" type="line"/>
      <point x="505" y="0" type="line"/>
      <point x="481" y="-113" type="line" smooth="yes"/>
      <point x="478" y="-128"/>
      <point x="488" y="-140"/>
      <point x="503" y="-140" type="curve" smooth="yes"/>
      <point x="699" y="-140" type="line" smooth="yes"/>
      <point x="714" y="-140"/>
      <point x="728" y="-128"/>
      <point x="731" y="-113" type="curve" smooth="yes"/>
      <point x="797" y="193" type="line" smooth="yes"/>
      <point x="800" y="208"/>
      <point x="790" y="220"/>
      <point x="775" y="220" type="curve" smooth="yes"/>
      <point x="730" y="220" type="line"/>
      <point x="827" y="673" type="line" smooth="yes"/>
      <point x="830" y="688"/>
      <point x="820" y="700"/>
      <point x="805" y="700" type="curve" smooth="yes"/>
      <point x="267" y="700" type="line" smooth="yes"/>
      <point x="252" y="700"/>
      <point x="238" y="688"/>
      <point x="235" y="673" type="curve" smooth="yes"/>
      <point x="194" y="481" type="line" smooth="yes"/>
      <point x="169" y="363"/>
      <point x="130" y="220"/>
      <point x="64" y="220" type="curve" smooth="yes"/>
      <point x="49" y="220" type="line" smooth="yes"/>
      <point x="34" y="220"/>
      <point x="20" y="208"/>
      <point x="17" y="193" type="curve" smooth="yes"/>
      <point x="-49" y="-113" type="line" smooth="yes"/>
      <point x="-52" y="-129"/>
      <point x="-42" y="-140"/>
    </contour>
    <contour>
      <point x="349" y="220" type="line"/>
      <point x="380" y="274"/>
      <point x="406" y="350"/>
      <point x="427" y="449" type="curve" smooth="yes"/>
      <point x="434" y="480" type="line"/>
      <point x="536" y="480" type="line"/>
      <point x="480" y="220" type="line"/>
    </contour>
  </outline>
</glyph>
<glyph name="Ze-cy" format="2">
  <advance width="723"/>
  <unicode hex="0417"/>
  <guideline x="-9"/>
  <anchor x="304" y="0" name="bottom"/>
  <anchor x="444" y="700" name="top"/>
  <outline>
    <contour>
      <point x="293" y="-10" type="curve" smooth="yes"/>
      <point x="495" y="-10"/>
      <point x="639" y="77"/>
      <point x="667" y="209" type="curve" smooth="yes"/>
      <point x="678" y="260"/>
      <point x="674" y="330"/>
      <point x="604" y="368" type="curve"/>
      <point x="676" y="403"/>
      <point x="701" y="460"/>
      <point x="710" y="501" type="curve" smooth="yes"/>
      <point x="735" y="618"/>
      <point x="628" y="710"/>
      <point x="447" y="710" type="curve" smooth="yes"/>
      <point x="206" y="710"/>
      <point x="111" y="589"/>
      <point x="82" y="501" type="curve" smooth="yes"/>
      <point x="79" y="489"/>
      <point x="87" y="479"/>
      <point x="99" y="479" type="curve" smooth="yes"/>
      <point x="297" y="479" type="line" smooth="yes"/>
      <point x="315" y="479"/>
      <point x="322" y="484"/>
      <point x="333" y="495" type="curve" smooth="yes"/>
      <point x="339" y="502"/>
      <point x="359" y="515"/>
      <point x="399" y="515" type="curve" smooth="yes"/>
      <point x="445" y="515"/>
      <point x="453" y="496"/>
      <point x="448" y="474" type="curve" smooth="yes"/>
      <point x="443" y="448"/>
      <point x="419" y="438"/>
      <point x="386" y="438" type="curve" smooth="yes"/>
      <point x="311" y="438" type="line" smooth="yes"/>
      <point x="296" y="438"/>
      <point x="281" y="424"/>
      <point x="278" y="409" type="curve" smooth="yes"/>
      <point x="252" y="289" type="line" smooth="yes"/>
      <point x="249" y="274"/>
      <point x="258" y="260"/>
      <point x="273" y="260" type="curve" smooth="yes"/>
      <point x="348" y="260" type="line" smooth="yes"/>
      <point x="395" y="260"/>
      <point x="416" y="249"/>
      <point x="410" y="221" type="curve" smooth="yes"/>
      <point x="404" y="196"/>
      <point x="382" y="183"/>
      <point x="329" y="183" type="curve" smooth="yes"/>
      <point x="293" y="183"/>
      <point x="276" y="190"/>
      <point x="266" y="203" type="curve" smooth="yes"/>
      <point x="259" y="212"/>
      <point x="253" y="219"/>
      <point x="235" y="219" type="curve" smooth="yes"/>
      <point x="39" y="219" type="line" smooth="yes"/>
      <point x="27" y="219"/>
      <point x="14" y="209"/>
      <point x="12" y="197" type="curve" smooth="yes"/>
      <point x="4" y="108"/>
      <point x="52" y="-10"/>
    </contour>
  </outline>
</glyph>
<glyph name="El-cy" format="2">
  <advance width="810"/>
  <unicode hex="041B"/>
  <guideline x="9" y="268" angle="0"/>
  <outline>
    <contour>
      <point x="470" y="0" type="curve" smooth="yes"/>
      <point x="666" y="0" type="line" smooth="yes"/>
      <point x="681" y="0"/>
      <point x="695" y="12"/>
      <point x="698" y="27" type="curve" smooth="yes"/>
      <point x="836" y="673" type="line" smooth="yes"/>
      <point x="839" y="688"/>
      <point x="829" y="700"/>
      <point x="814" y="700" type="curve" smooth="yes"/>
      <point x="246" y="700" type="line" smooth="yes"/>
      <point x="231" y="700"/>
      <point x="217" y="688"/>
      <point x="214" y="673" type="curve" smooth="yes"/>
      <point x="173" y="481" type="line" smooth="yes"/>
      <point x="146" y="357"/>
      <point x="112" y="225"/>
      <point x="42" y="212" type="curve" smooth="yes"/>
      <point x="25" y="209"/>
      <point x="12" y="200"/>
      <point x="9" y="185" type="curve" smooth="yes"/>
      <point x="-25" y="27" type="line" smooth="yes"/>
      <point x="-28" y="12"/>
      <point x="-17" y="0"/>
      <point x="-2" y="0" type="curve" smooth="yes"/>
      <point x="275" y="0"/>
      <point x="338" y="127"/>
      <point x="406" y="449" type="curve" smooth="yes"/>
      <point x="413" y="480" type="line"/>
      <point x="545" y="480" type="line"/>
      <point x="448" y="27" type="line" smooth="yes"/>
      <point x="445" y="12"/>
      <point x="455" y="0"/>
    </contour>
  </outline>
</glyph>
<glyph name="hardsign-cy" format="2">
  <advance width="715"/>
  <unicode hex="044A"/>
  <outline>
    <contour>
      <point x="124" y="0" type="curve" smooth="yes"/>
      <point x="411" y="0" type="line" smooth="yes"/>
      <point x="544" y="0"/>
      <point x="649" y="68"/>
      <point x="674" y="184" type="curve" smooth="yes"/>
      <point x="699" y="300"/>
      <point x="622" y="369"/>
      <point x="489" y="369" type="curve" smooth="yes"/>
      <point x="409" y="369" type="line"/>
      <point x="436" y="493" type="line" smooth="yes"/>
      <point x="439" y="508"/>
      <point x="429" y="520"/>
      <point x="414" y="520" type="curve" smooth="yes"/>
      <point x="97" y="520" type="line" smooth="yes"/>
      <point x="82" y="520"/>
      <point x="68" y="508"/>
      <point x="65" y="493" type="curve" smooth="yes"/>
      <point x="39" y="372" type="line" smooth="yes"/>
      <point x="36" y="357"/>
      <point x="45" y="345"/>
      <point x="60" y="345" type="curve" smooth="yes"/>
      <point x="170" y="345" type="line"/>
      <point x="102" y="27" type="line" smooth="yes"/>
      <point x="99" y="12"/>
      <point x="109" y="0"/>
    </contour>
    <contour>
      <point x="357" y="149" type="line"/>
      <point x="372" y="220" type="line"/>
      <point x="437" y="220" type="line" smooth="yes"/>
      <point x="464" y="220"/>
      <point x="475" y="207"/>
      <point x="470" y="184" type="curve" smooth="yes"/>
      <point x="465" y="161"/>
      <point x="449" y="149"/>
      <point x="422" y="149" type="curve" smooth="yes"/>
    </contour>
  </outline>
</glyph>
<glyph name="Ghestroke-cy" format="2">
  <advance width="635"/>
  <unicode hex="0492"/>
  <outline>
    <contour>
      <point x="29" y="269" type="curve" smooth="yes"/>
      <point x="404" y="269" type="line" smooth="yes"/>
      <point x="419" y="269"/>
      <point x="433" y="281"/>
      <point x="437" y="296" type="curve" smooth="yes"/>
      <point x="451" y="364" type="line" smooth="yes"/>
      <point x="454" y="379"/>
      <point x="445" y="391"/>
      <point x="430" y="391" type="curve" smooth="yes"/>
      <point x="55" y="391" type="line" smooth="yes"/>
      <point x="40" y="391"/>
      <point x="25" y="379"/>
      <point x="22" y="364" type="curve" smooth="yes"/>
      <point x="8" y="296" type="line" smooth="yes"/>
      <point x="4" y="281"/>
      <point x="14" y="269"/>
    </contour>
    <component base="Ge-cy" xOffset="36"/>
  </outline>
</glyph>
<glyph name="zedescender-cy" format="2">
  <advance width="615"/>
  <unicode hex="0499"/>
  <outline>
    <contour>
      <point x="143" y="-110" type="curve" smooth="yes"/>
      <point x="322" y="-110" type="line" smooth="yes"/>
      <point x="337" y="-110"/>
      <point x="352" y="-98"/>
      <point x="355" y="-83" type="curve" smooth="yes"/>
      <point x="383" y="48" type="line"/>
      <point x="150" y="48" type="line"/>
      <point x="122" y="-83" type="line" smooth="yes"/>
      <point x="119" y="-98"/>
      <point x="128" y="-110"/>
    </contour>
    <component base="ze-cy"/>
  </outline>
</glyph>
<glyph name="esdescender-cy" format="2">
  <advance width="621"/>
  <unicode hex="04AB"/>
  <outline>
    <contour>
      <point x="148" y="-110" type="curve" smooth="yes"/>
      <point x="327" y="-110" type="line" smooth="yes"/>
      <point x="342" y="-110"/>
      <point x="357" y="-98"/>
      <point x="360" y="-83" type="curve" smooth="yes"/>
      <point x="388" y="48" type="line"/>
      <point x="155" y="48" type="line"/>
      <point x="127" y="-83" type="line" smooth="yes"/>
      <point x="124" y="-98"/>
      <point x="133" y="-110"/>
    </contour>
    <component base="es-cy"/>
  </outline>
</glyph>
<glyph name="ustrait-cy" format="2">
  <advance width="614"/>
  <unicode hex="04AF"/>
  <guideline x="291" y="178" angle="90"/>
  <anchor x="244" y="-10" name="center"/>
  <outline>
    <contour>
      <point x="120" y="-190" type="curve" smooth="yes"/>
      <point x="305" y="-190" type="line" smooth="yes"/>
      <point x="320" y="-190"/>
      <point x="334" y="-178"/>
      <point x="337" y="-163" type="curve" smooth="yes"/>
      <point x="381" y="43" type="line"/>
      <point x="662" y="489" type="line" smooth="yes"/>
      <point x="664" y="493"/>
      <point x="665" y="497"/>
      <point x="665" y="501" type="curve" smooth="yes"/>
      <point x="665" y="511"/>
      <point x="659" y="520"/>
      <point x="645" y="520" type="curve" smooth="yes"/>
      <point x="476" y="520" type="line" smooth="yes"/>
      <point x="457" y="520"/>
      <point x="446" y="510"/>
      <point x="438" y="496" type="curve" smooth="yes"/>
      <point x="309" y="263" type="line"/>
      <point x="278" y="496" type="line" smooth="yes"/>
      <point x="276" y="512"/>
      <point x="269" y="520"/>
      <point x="250" y="520" type="curve" smooth="yes"/>
      <point x="81" y="520" type="line" smooth="yes"/>
      <point x="63" y="520"/>
      <point x="51" y="512"/>
      <point x="51" y="496" type="curve" smooth="yes"/>
      <point x="51" y="494"/>
      <point x="51" y="492"/>
      <point x="52" y="489" type="curve" smooth="yes"/>
      <point x="143" y="48" type="line"/>
      <point x="98" y="-163" type="line" smooth="yes"/>
      <point x="95" y="-178"/>
      <point x="105" y="-190"/>
    </contour>
  </outline>
</glyph>
<glyph name="chedescender-cy" format="2">
  <advance width="695"/>
  <unicode hex="04B7"/>
  <outline>
    <contour>
      <point x="375" y="-110" type="curve" smooth="yes"/>
      <point x="554" y="-110" type="line" smooth="yes"/>
      <point x="569" y="-110"/>
      <point x="584" y="-98"/>
      <point x="587" y="-83" type="curve" smooth="yes"/>
      <point x="636" y="148" type="line" smooth="yes"/>
      <point x="639" y="163"/>
      <point x="630" y="175"/>
      <point x="615" y="175" type="curve" smooth="yes"/>
      <point x="343" y="175" type="line"/>
      <point x="347" y="0" type="line"/>
      <point x="371" y="0" type="line"/>
      <point x="354" y="-83" type="line" smooth="yes"/>
      <point x="351" y="-98"/>
      <point x="360" y="-110"/>
    </contour>
    <component base="che-cy"/>
  </outline>
</glyph>
<glyph name="Schwa-cy" format="2">
  <advance width="742"/>
  <unicode hex="04D8"/>
  <guideline x="759" y="260" angle="0"/>
  <guideline x="796" y="436" angle="0"/>
  <guideline x="356" y="230" angle="90"/>
  <outline>
    <contour>
      <point x="735" y="439" type="curve" smooth="yes"/>
      <point x="766" y="625"/>
      <point x="645" y="710"/>
      <point x="459" y="710" type="curve" smooth="yes"/>
      <point x="287" y="710"/>
      <point x="118" y="612"/>
      <point x="88" y="473" type="curve" smooth="yes"/>
      <point x="86" y="461"/>
      <point x="93" y="451"/>
      <point x="105" y="451" type="curve" smooth="yes"/>
      <point x="300" y="451" type="line" smooth="yes"/>
      <point x="322" y="451"/>
      <point x="331" y="458"/>
      <point x="344" y="480" type="curve"/>
      <point x="362" y="509"/>
      <point x="387" y="515"/>
      <point x="417" y="515" type="curve" smooth="yes"/>
      <point x="461" y="515"/>
      <point x="485" y="495"/>
      <point x="474" y="434" type="curve" smooth="yes"/>
      <point x="472" y="426"/>
      <point x="472" y="419"/>
      <point x="470" y="411" type="curve"/>
      <point x="96" y="411" type="line" smooth="yes"/>
      <point x="76" y="411"/>
      <point x="57" y="395"/>
      <point x="52" y="374" type="curve" smooth="yes"/>
      <point x="47" y="351" type="line" smooth="yes"/>
      <point x="5" y="154"/>
      <point x="79" y="-10"/>
      <point x="304" y="-10" type="curve" smooth="yes"/>
      <point x="496" y="-10"/>
      <point x="648" y="70"/>
      <point x="697" y="261" type="curve" smooth="yes"/>
      <point x="711" y="315"/>
      <point x="725" y="382"/>
    </contour>
    <contour>
      <point x="347" y="185" type="curve" smooth="yes"/>
      <point x="300" y="185"/>
      <point x="281" y="218"/>
      <point x="290" y="263" type="curve"/>
      <point x="295" y="289" type="line"/>
      <point x="444" y="289" type="line"/>
      <point x="442" y="281"/>
      <point x="440" y="274"/>
      <point x="438" y="266" type="curve" smooth="yes"/>
      <point x="423" y="205"/>
      <point x="391" y="185"/>
    </contour>
  </outline>
</glyph>
<glyph name="Pedescender-cy" format="2">
  <advance width="819"/>
  <unicode hex="0524"/>
  <outline>
    <contour>
      <point x="22" y="0" type="curve" smooth="yes"/>
      <point x="218" y="0" type="line" smooth="yes"/>
      <point x="233" y="0"/>
      <point x="248" y="12"/>
      <point x="251" y="27" type="curve" smooth="yes"/>
      <point x="348" y="480" type="line"/>
      <point x="510" y="480" type="line"/>
      <point x="413" y="27" type="line" smooth="yes"/>
      <point x="410" y="12"/>
      <point x="419" y="0"/>
      <point x="434" y="0" type="curve" smooth="yes"/>
      <point x="630" y="0" type="line" smooth="yes"/>
      <point x="645" y="0"/>
      <point x="660" y="12"/>
      <point x="663" y="27" type="curve" smooth="yes"/>
      <point x="801" y="673" type="line" smooth="yes"/>
      <point x="804" y="688"/>
      <point x="794" y="700"/>
      <point x="779" y="700" type="curve" smooth="yes"/>
      <point x="171" y="700" type="line" smooth="yes"/>
      <point x="156" y="700"/>
      <point x="142" y="688"/>
      <point x="139" y="673" type="curve" smooth="yes"/>
      <point x="1" y="27" type="line" smooth="yes"/>
      <point x="-2" y="11"/>
      <point x="7" y="0"/>
    </contour>
    <contour>
      <point x="477" y="-140" type="curve" smooth="yes"/>
      <point x="673" y="-140" type="line" smooth="yes"/>
      <point x="688" y="-140"/>
      <point x="702" y="-128"/>
      <point x="705" y="-113" type="curve" smooth="yes"/>
      <point x="771" y="193" type="line" smooth="yes"/>
      <point x="774" y="208"/>
      <point x="764" y="220"/>
      <point x="749" y="220" type="curve" smooth="yes"/>
      <point x="454" y="220" type="line"/>
      <point x="457" y="0" type="line"/>
      <point x="479" y="0" type="line"/>
      <point x="455" y="-113" type="line" smooth="yes"/>
      <point x="452" y="-128"/>
      <point x="462" y="-140"/>
    </contour>
  </outline>
</glyph>
<glyph name="patah-hb" format="2">
  <unicode hex="05B7"/>
  <anchor x="-47" y="0" name="_bottom"/>
  <outline>
    <contour>
      <point x="-189" y="-182" type="curve" smooth="yes"/>
      <point x="19" y="-182" type="line" smooth="yes"/>
      <point x="32" y="-182"/>
      <point x="42" y="-173"/>
      <point x="45" y="-160" type="curve" smooth="yes"/>
      <point x="59" y="-97" type="line" smooth="yes"/>
      <point x="61" y="-84"/>
      <point x="54" y="-75"/>
      <point x="41" y="-75" type="curve" smooth="yes"/>
      <point x="-167" y="-75" type="line" smooth="yes"/>
      <point x="-180" y="-75"/>
      <point x="-191" y="-84"/>
      <point x="-193" y="-97" type="curve" smooth="yes"/>
      <point x="-207" y="-160" type="line" smooth="yes"/>
      <point x="-210" y="-173"/>
      <point x="-202" y="-182"/>
    </contour>
  </outline>
</glyph>
<glyph name="maqaf-hb" format="2">
  <advance width="419"/>
  <unicode hex="05BE"/>
  <guideline x="368" y="571" angle="0"/>
  <guideline x="368" y="395" angle="0"/>
  <outline>
    <contour>
      <point x="117" y="395" type="curve" smooth="yes"/>
      <point x="372" y="395" type="line" smooth="yes"/>
      <point x="385" y="395"/>
      <point x="396" y="404"/>
      <point x="399" y="417" type="curve" smooth="yes"/>
      <point x="427" y="549" type="line" smooth="yes"/>
      <point x="430" y="562"/>
      <point x="423" y="571"/>
      <point x="410" y="571" type="curve" smooth="yes"/>
      <point x="155" y="571" type="line" smooth="yes"/>
      <point x="142" y="571"/>
      <point x="131" y="562"/>
      <point x="128" y="549" type="curve" smooth="yes"/>
      <point x="100" y="417" type="line" smooth="yes"/>
      <point x="97" y="404"/>
      <point x="104" y="395"/>
    </contour>
  </outline>
</glyph>
<glyph name="alef-hb" format="2">
  <advance width="674"/>
  <unicode hex="05D0"/>
  <guideline x="303" y="431" angle="0"/>
  <guideline x="335"/>
  <guideline x="897"/>
  <anchor x="269" y="0" name="bottom"/>
  <anchor x="-26" y="0" name="bottomleft"/>
  <anchor x="252" y="24" name="center"/>
  <anchor x="380" y="520" name="top"/>
  <anchor x="85" y="520" name="topleft"/>
  <outline>
    <contour>
      <point x="388" y="0" type="curve" smooth="yes"/>
      <point x="563" y="0" type="line" smooth="yes"/>
      <point x="575" y="0"/>
      <point x="587" y="10"/>
      <point x="590" y="22" type="curve" smooth="yes"/>
      <point x="590" y="24"/>
      <point x="592" y="28"/>
      <point x="589" y="33" type="curve" smooth="yes"/>
      <point x="338" y="546" type="line" smooth="yes"/>
      <point x="335" y="553"/>
      <point x="328" y="571"/>
      <point x="302" y="571" type="curve" smooth="yes"/>
      <point x="135" y="571" type="line" smooth="yes"/>
      <point x="123" y="571"/>
      <point x="110" y="561"/>
      <point x="108" y="549" type="curve" smooth="yes"/>
      <point x="107" y="544"/>
      <point x="106" y="542"/>
      <point x="109" y="538" type="curve" smooth="yes"/>
      <point x="352" y="23" type="line" smooth="yes"/>
      <point x="355" y="18"/>
      <point x="362" y="0"/>
    </contour>
    <contour>
      <point x="20" y="0" type="curve" smooth="yes"/>
      <point x="159" y="0" type="line" smooth="yes"/>
      <point x="174" y="0"/>
      <point x="189" y="12"/>
      <point x="192" y="29" type="curve" smooth="yes"/>
      <point x="216" y="140" type="line" smooth="yes"/>
      <point x="221" y="163"/>
      <point x="229" y="209"/>
      <point x="266" y="237" type="curve"/>
      <point x="193" y="387" type="line"/>
      <point x="89" y="319"/>
      <point x="49" y="263"/>
      <point x="22" y="136" type="curve" smooth="yes"/>
      <point x="-1" y="29" type="line" smooth="yes"/>
      <point x="-4" y="14"/>
      <point x="5" y="0"/>
    </contour>
    <contour>
      <point x="486" y="203" type="line"/>
      <point x="601" y="266"/>
      <point x="647" y="349"/>
      <point x="664" y="427" type="curve" smooth="yes"/>
      <point x="688" y="542" type="line" smooth="yes"/>
      <point x="692" y="557"/>
      <point x="683" y="571"/>
      <point x="668" y="571" type="curve" smooth="yes"/>
      <point x="519" y="571" type="line" smooth="yes"/>
      <point x="504" y="571"/>
      <point x="489" y="559"/>
      <point x="485" y="542" type="curve" smooth="yes"/>
      <point x="462" y="431" type="line" smooth="yes"/>
      <point x="457" y="410"/>
      <point x="447" y="369"/>
      <point x="408" y="350" type="curve"/>
    </contour>
  </outline>
</glyph>
<glyph name="nun-hb" format="2">
  <advance width="469"/>
  <unicode hex="05E0"/>
  <guideline x="300" y="321" angle="0"/>
  <guideline x="325"/>
  <guideline x="400"/>
  <anchor x="186" y="0" name="bottom"/>
  <anchor x="-29" y="0" name="bottomleft"/>
  <anchor x="115" y="260" name="center"/>
  <anchor x="290" y="520" name="top"/>
  <anchor x="82" y="520" name="topleft"/>
  <outline>
    <contour>
      <point x="10" y="0" type="curve" smooth="yes"/>
      <point x="338" y="0" type="line" smooth="yes"/>
      <point x="353" y="0"/>
      <point x="368" y="12"/>
      <point x="371" y="27" type="curve" smooth="yes"/>
      <point x="402" y="175" type="line"/>
      <point x="47" y="175" type="line" smooth="yes"/>
      <point x="32" y="175"/>
      <point x="18" y="163"/>
      <point x="15" y="148" type="curve" smooth="yes"/>
      <point x="-11" y="27" type="line" smooth="yes"/>
      <point x="-14" y="12"/>
      <point x="-5" y="0"/>
    </contour>
    <contour>
      <point x="189" y="0" type="curve" smooth="yes"/>
      <point x="368" y="0" type="line" smooth="yes"/>
      <point x="383" y="0"/>
      <point x="398" y="12"/>
      <point x="401" y="27" type="curve" smooth="yes"/>
      <point x="455" y="327" type="line" smooth="yes"/>
      <point x="489" y="517"/>
      <point x="402" y="581"/>
      <point x="207" y="581" type="curve" smooth="yes"/>
      <point x="144" y="581" type="line" smooth="yes"/>
      <point x="129" y="581"/>
      <point x="114" y="569"/>
      <point x="111" y="554" type="curve" smooth="yes"/>
      <point x="86" y="435" type="line" smooth="yes"/>
      <point x="82" y="420"/>
      <point x="92" y="408"/>
      <point x="107" y="408" type="curve" smooth="yes"/>
      <point x="165" y="408" type="line" smooth="yes"/>
      <point x="214" y="408"/>
      <point x="233" y="388"/>
      <point x="223" y="333" type="curve" smooth="yes"/>
      <point x="168" y="27" type="line"/>
      <point x="165" y="12"/>
      <point x="174" y="0"/>
    </contour>
  </outline>
</glyph>
<glyph name="eightinferior" format="2">
  <advance width="368"/>
  <unicode hex="2088"/>
  <guideline x="350" y="180" angle="0"/>
  <guideline x="350" y="-170" angle="0"/>
  <outline>
    <contour>
      <point x="97" y="-175" type="curve" smooth="yes"/>
      <point x="214" y="-175"/>
      <point x="269" y="-122"/>
      <point x="281" y="-65" type="curve" smooth="yes"/>
      <point x="288" y="-32"/>
      <point x="277" y="0"/>
      <point x="253" y="14" type="curve"/>
      <point x="278" y="30"/>
      <point x="291" y="52"/>
      <point x="297" y="80" type="curve" smooth="yes"/>
      <point x="308" y="133"/>
      <point x="283" y="185"/>
      <point x="174" y="185" type="curve" smooth="yes"/>
      <point x="65" y="185"/>
      <point x="15" y="132"/>
      <point x="4" y="79" type="curve" smooth="yes"/>
      <point x="-2" y="51"/>
      <point x="4" y="29"/>
      <point x="21" y="14" type="curve"/>
      <point x="-7" y="-1"/>
      <point x="-31" y="-29"/>
      <point x="-38" y="-62" type="curve" smooth="yes"/>
      <point x="-50" y="-119"/>
      <point x="-20" y="-175"/>
    </contour>
    <contour>
      <point x="115" y="-89" type="curve" smooth="yes"/>
      <point x="97" y="-89"/>
      <point x="85" y="-79"/>
      <point x="89" y="-63" type="curve" smooth="yes"/>
      <point x="92" y="-46"/>
      <point x="109" y="-36"/>
      <point x="127" y="-36" type="curve" smooth="yes"/>
      <point x="145" y="-36"/>
      <point x="155" y="-46"/>
      <point x="152" y="-63" type="curve" smooth="yes"/>
      <point x="148" y="-79"/>
      <point x="133" y="-89"/>
    </contour>
    <contour>
      <point x="144" y="48" type="curve" smooth="yes"/>
      <point x="126" y="48"/>
      <point x="119" y="58"/>
      <point x="122" y="72" type="curve" smooth="yes"/>
      <point x="124" y="85"/>
      <point x="137" y="96"/>
      <point x="155" y="96" type="curve" smooth="yes"/>
      <point x="173" y="96"/>
      <point x="181" y="85"/>
      <point x="179" y="72" type="curve" smooth="yes"/>
      <point x="176" y="58"/>
      <point x="162" y="48"/>
    </contour>
  </outline>
</glyph>
<glyph name="braceright.case" format="2">
  <advance width="507"/>
  <outline>
    <contour>
      <point x="189" y="818" type="curve"/>
      <point x="184" y="818" type="line"/>
      <point x="172" y="818"/>
      <point x="160" y="808"/>
      <point x="157" y="796" type="curve" smooth="yes"/>
      <point x="128" y="659" type="line" smooth="yes"/>
      <point x="126" y="647"/>
      <point x="134" y="638"/>
      <point x="143" y="637" type="curve"/>
      <point x="147" y="636" type="line"/>
      <point x="215" y="627"/>
      <point x="262" y="597"/>
      <point x="245" y="518" type="curve" smooth="yes"/>
      <point x="228" y="438"/>
      <point x="249" y="364"/>
      <point x="283" y="351" type="curve"/>
      <point x="243" y="338"/>
      <point x="193" y="272"/>
      <point x="174" y="184" type="curve" smooth="yes"/>
      <point x="157" y="104"/>
      <point x="98" y="75"/>
      <point x="24" y="65" type="curve"/>
      <point x="21" y="65" type="line"/>
      <point x="12" y="64"/>
      <point x="0" y="55"/>
      <point x="-3" y="43" type="curve" smooth="yes"/>
      <point x="-32" y="-94" type="line" smooth="yes"/>
      <point x="-34" y="-106"/>
      <point x="-26" y="-116"/>
      <point x="-14" y="-116" type="curve"/>
      <point x="-7" y="-116" type="line"/>
      <point x="148" y="-113"/>
      <point x="339" y="-27"/>
      <point x="382" y="173" type="curve" smooth="yes"/>
      <point x="391" y="216"/>
      <point x="415" y="260"/>
      <point x="458" y="276" type="curve" smooth="yes"/>
      <point x="476" y="283" type="line" smooth="yes"/>
      <point x="498" y="292"/>
      <point x="510" y="304"/>
      <point x="514" y="325" type="curve" smooth="yes"/>
      <point x="525" y="377" type="line" smooth="yes"/>
      <point x="530" y="398"/>
      <point x="523" y="410"/>
      <point x="505" y="419" type="curve" smooth="yes"/>
      <point x="490" y="426" type="line" smooth="yes"/>
      <point x="454" y="442"/>
      <point x="449" y="486"/>
      <point x="458" y="529" type="curve" smooth="yes"/>
      <point x="500" y="730"/>
      <point x="345" y="816"/>
    </contour>
  </outline>
</glyph>
<glyph name="brevecomb.case" format="2">
  <anchor x="181" y="700" name="_top"/>
  <anchor x="228" y="920" name="top"/>
  <outline>
    <contour>
      <point x="188" y="745" type="curve" smooth="yes"/>
      <point x="318" y="745"/>
      <point x="369" y="811"/>
      <point x="388" y="901" type="curve" smooth="yes"/>
      <point x="390" y="911"/>
      <point x="385" y="920"/>
      <point x="373" y="920" type="curve" smooth="yes"/>
      <point x="274" y="920" type="line" smooth="yes"/>
      <point x="262" y="920"/>
      <point x="253" y="911"/>
      <point x="251" y="901" type="curve" smooth="yes"/>
      <point x="245" y="871"/>
      <point x="231" y="846"/>
      <point x="199" y="846" type="curve" smooth="yes"/>
      <point x="167" y="846"/>
      <point x="165" y="871"/>
      <point x="171" y="901" type="curve" smooth="yes"/>
      <point x="173" y="911"/>
      <point x="168" y="920"/>
      <point x="156" y="920" type="curve" smooth="yes"/>
      <point x="57" y="920" type="line" smooth="yes"/>
      <point x="45" y="920"/>
      <point x="36" y="911"/>
      <point x="34" y="901" type="curve" smooth="yes"/>
      <point x="15" y="811"/>
      <point x="78" y="745"/>
    </contour>
  </outline>
</glyph>
<glyph name="commaaccentcomb.case" format="2">
  <outline>
    <contour>
      <point x="49" y="-250" type="curve" smooth="yes"/>
      <point x="165" y="-250" type="line" smooth="yes"/>
      <point x="191" y="-250"/>
      <point x="207" y="-231"/>
      <point x="215" y="-218" type="curve" smooth="yes"/>
      <point x="300" y="-79" type="line"/>
      <point x="302" y="-75"/>
      <point x="303" y="-72"/>
      <point x="303" y="-68" type="curve" smooth="yes"/>
      <point x="303" y="-59"/>
      <point x="296" y="-50"/>
      <point x="285" y="-50" type="curve" smooth="yes"/>
      <point x="134" y="-50" type="line" smooth="yes"/>
      <point x="107" y="-50"/>
      <point x="89" y="-71"/>
      <point x="83" y="-89" type="curve" smooth="yes"/>
      <point x="32" y="-226" type="line"/>
      <point x="27" y="-238"/>
      <point x="36" y="-250"/>
    </contour>
  </outline>
</glyph>
<glyph name="finalpedageshhebrew.black.black.001" format="2">
  <advance width="591"/>
  <guideline x="-126"/>
  <guideline x="1607"/>
  <anchor x="273" y="229" name="_center"/>
  <anchor x="235" y="0" name="bottom"/>
  <anchor x="-29" y="0" name="bottomleft"/>
  <anchor x="290" y="242" name="center"/>
  <anchor x="346" y="520" name="top"/>
  <anchor x="82" y="520" name="topleft"/>
  <outline>
    <contour>
      <point x="285" y="205" type="curve" smooth="yes"/>
      <point x="298" y="205" type="line" smooth="yes"/>
      <point x="311" y="205"/>
      <point x="322" y="214"/>
      <point x="324" y="227" type="curve" smooth="yes"/>
      <point x="338" y="290" type="line" smooth="yes"/>
      <point x="341" y="303"/>
      <point x="334" y="312"/>
      <point x="321" y="312" type="curve" smooth="yes"/>
      <point x="308" y="312" type="line" smooth="yes"/>
      <point x="295" y="312"/>
      <point x="284" y="303"/>
      <point x="281" y="290" type="curve" smooth="yes"/>
      <point x="267" y="227" type="line" smooth="yes"/>
      <point x="265" y="214"/>
      <point x="272" y="205"/>
    </contour>
    <component base="finalpe-hb" xOffset="1"/>
  </outline>
</glyph>
<glyph name="seven.otlf" format="2">
  <advance width="700"/>
  <guideline x="350" y="522" angle="0"/>
  <guideline x="696"/>
  <outline>
    <contour>
      <point x="122" y="0" type="curve" smooth="yes"/>
      <point x="315" y="0" type="line" smooth="yes"/>
      <point x="340" y="0"/>
      <point x="356" y="16"/>
      <point x="361" y="23" type="curve" smooth="yes"/>
      <point x="678" y="490" type="line" smooth="yes"/>
      <point x="687" y="503"/>
      <point x="697" y="518"/>
      <point x="702" y="541" type="curve" smooth="yes"/>
      <point x="730" y="673" type="line" smooth="yes"/>
      <point x="733" y="688"/>
      <point x="725" y="700"/>
      <point x="709" y="700" type="curve" smooth="yes"/>
      <point x="192" y="700" type="line" smooth="yes"/>
      <point x="177" y="700"/>
      <point x="162" y="688"/>
      <point x="159" y="673" type="curve" smooth="yes"/>
      <point x="127" y="522" type="line" smooth="yes"/>
      <point x="124" y="507"/>
      <point x="133" y="495"/>
      <point x="148" y="495" type="curve" smooth="yes"/>
      <point x="423" y="495" type="line"/>
      <point x="109" y="31" type="line" smooth="yes"/>
      <point x="107" y="29"/>
      <point x="106" y="26"/>
      <point x="105" y="22" type="curve" smooth="yes"/>
      <point x="102" y="10"/>
      <point x="110" y="0"/>
    </contour>
  </outline>
</glyph>
